<?xml version="1.0" encoding="utf-8"?>
<!-- Generator: Adobe Illustrator 18.0.0, SVG Export Plug-In . SVG Version: 6.00 Build 0)  -->
<!DOCTYPE svg PUBLIC "-//W3C//DTD SVG 1.1//EN" "http://www.w3.org/Graphics/SVG/1.1/DTD/svg11.dtd">
<svg version="1.1" id="Layer_1" xmlns="http://www.w3.org/2000/svg" xmlns:xlink="http://www.w3.org/1999/xlink" x="0px" y="0px"
	 viewBox="0 0 500 500" style="enable-background:new 0 0 500 500;" xml:space="preserve">
<g>
	<path d="M153.2,465.3v25.4c0,10.3,1.6,18.4,4.7,24.3s8.9,8.8,17.2,8.8h7.3c0,9.2,2.5,16.3,7.6,21.5c5.1,5.2,12.1,7.8,21,7.8h58.5
		c9.2,0,16.4-2.6,21.8-7.9c5.4-5.3,8-12.4,8-21.3h7.3c8.4,0,14.1-2.9,17.2-8.8s4.7-13.9,4.7-24.3v-25.4H153.2z M383.4,108.6
		c-14.7-25.1-34.7-45.1-59.9-59.8c-25.2-14.7-52.8-22.1-82.6-22.1c-29.8,0-57.3,7.4-82.6,22.1c-25.2,14.7-45.2,34.6-59.8,59.8
		c-14.6,25.1-21.9,52.6-21.9,82.4c0,10.1,2.1,21.8,6.4,34.9c4.3,13.2,9,24.9,14.2,35.2c5.2,10.3,11.2,21.1,18,32.3
		c6.8,11.2,11.5,18.7,14.2,22.5s4.7,6.8,6.3,8.9c4.9,6.4,9,14.8,12.4,25.1c3.4,10.3,5.1,19.5,5.1,27.5v29.2c0,8,2.9,14.9,8.6,20.6
		c1.7,1.7,3.5,3.1,5.4,4.3c3.7-8.5,6.7-17.2,9-26.1c3.1-11.7,5.2-23.5,6.3-35.5c0.6-6.4,0.8-12.8,1-19.2c0.1-1.6,0.4-2.4,2.2-2.3
		c15.5,0.1,31.1,0,46.6,0c0.6,0,1.1,0.1,1.6,0.1c0.5,7.2,0.8,14.1,1.4,21c1.3,14.5,4,28.7,8.4,42.5c2.3,7.1,5.2,13.9,7.8,20.9
		c0.5,1.3,1.2,1.8,2.6,1.7c1.5-0.1,2.9,0,4.4,0c-6.2-22.8-8.5-46-9-69.6h33.8c0.2,2.8,0.3,5.6,0.5,8.5c0.6,11,2.2,22,4.7,32.7
		c2.4,10,5.3,19.8,8,29.7h2.7c8,0,14.9-2.9,20.6-8.6c5.7-5.8,8.6-12.6,8.6-20.6v-29.2c0-8,1.7-17.1,5.1-27.5
		c3.4-10.3,7.5-18.7,12.4-25.1l6.1-8.8c4.1-5.7,9.1-13.4,14.9-23.1c5.8-9.7,11.6-20.2,17.4-31.4s10.7-23.2,14.8-36.1
		c4.1-12.9,6.1-24.4,6.1-34.5C405.4,161.3,398.1,133.8,383.4,108.6z M337,313.7c-0.7,7.4-5.5,13-12.6,13.9c-2.8,0.4-4.4,1.2-6.1,3.6
		c-4.9,6.8-15,7.6-21.3,2.1c-0.6-0.5-1.1-1-1.9-1.7c-0.1,1-0.2,1.7-0.3,2.5c-1.1,5.6-5.3,9.7-10.9,10.8c-4.9,0.9-9.3,2.8-12.3,7.1
		c-0.2,0.3-0.7,0.5-1.1,0.5c-3.7,0-7.4,0-11.3,0c0.5-7.1,2.1-13.6,5.5-19.2c-2.7,1.2-5.5,3-8.6,3.8c-9.2,2.5-18.3-1.7-22.6-10.2
		c-0.8-1.6-1.6-1.8-3.1-1.3c-4.9,1.7-8.6,4.8-11.4,9c-0.7,1-1.4,1.5-2.6,1.4c-4.8-0.1-9.6,0-14.5,0c-0.3-4.4,0.5-8.5,1.7-12.5
		c4-13.7,12.7-22.7,26.8-26.1c0.7-0.2,1.4-0.7,1.8-1.2c5.2-7.4,13.2-10.5,22-8.6c7.8,1.7,13.8,8.3,15.3,16.8
		c0.1,0.4,0.1,0.9,0.3,1.7c3.5-9.5,10-14.7,19.8-14.4c9.6,0.3,15.8,5.7,18.9,15c0.5-0.7,0.8-1.2,1.1-1.7c3.8-6,10.9-8.4,17.6-6.2
		C333,301,337.5,307.6,337,313.7z"/>
</g>
</svg>
